<?xml version="1.0" encoding="utf-8"?>
<!-- Generator: Adobe Illustrator 21.0.0, SVG Export Plug-In . SVG Version: 6.00 Build 0)  -->
<svg version="1.1" id="Layer_1" xmlns="http://www.w3.org/2000/svg" xmlns:xlink="http://www.w3.org/1999/xlink" x="0px" y="0px"
	 viewBox="0 0 366 44" style="enable-background:new 0 0 366 44;" xml:space="preserve">
<style type="text/css">
	.st0{fill:#BE1727;stroke:#BE1727;stroke-width:0.3728;}
	.st1{fill:#BE1727;stroke:#BE1727;stroke-width:0.3527;}
	.st2{fill:#242C5F;}
	.st3{fill:#4D4D4D;}
</style>
<path class="st0" d="M161.4,10.1c0-4.4,0-5.2-0.1-6.1c-0.1-1-0.2-1.4-1.2-1.6c-0.2,0-0.7-0.1-1-0.1c-0.1,0-0.2-0.1-0.2-0.2
	c0-0.2,0.1-0.2,0.5-0.2c1.3,0,3.2,0.1,3.4,0.1c0.3,0,2.2-0.1,3.9-0.1c2.9,0,8.2-0.3,11.7,3.2c1.5,1.5,2.8,3.8,2.8,7.2
	c0,3.6-1.5,6.3-3.1,7.9c-1.3,1.3-3.9,3.3-8.8,3.3c-1.3,0-2.8-0.1-4.1-0.2s-2.2-0.2-2.4-0.2c-0.1,0-0.6,0-1.2,0
	c-0.6,0-1.3,0.1-1.8,0.1c-0.3,0-0.5-0.1-0.5-0.2s0.1-0.2,0.2-0.2c0.3,0,0.6-0.1,0.9-0.1c0.6-0.1,0.6-0.7,0.8-1.5
	c0.2-1.2,0.2-3.4,0.2-6.1L161.4,10.1L161.4,10.1z M164,13.2c0,3,0,5.6,0,6.2c0,0.7,0.1,1.7,0.3,2c0.4,0.5,1.4,1.1,4.8,1.1
	c2.7,0,5.1-0.9,6.8-2.6c1.5-1.4,2.3-4.1,2.3-6.7c0-3.6-1.6-5.9-2.7-7.1c-2.7-2.8-6-3.2-9.4-3.2c-0.6,0-1.5,0.1-1.7,0.2
	c-0.3,0.1-0.4,0.2-0.4,0.6L164,13.2L164,13.2z"/>
<path class="st1" d="M0.5,23C0,22.8,0,22.6,0,21.8c0-1.5,0.1-2.7,0.2-3.2c0-0.3,0.1-0.5,0.3-0.5s0.2,0.1,0.2,0.3
	c0,0.3,0,0.7,0.1,1.1c0.5,2.2,2.7,3,4.9,3c3.2,0,4.7-2.1,4.7-4c0-2.1-1-3.2-3.8-5.4L5.1,12C1.6,9.7,0.8,7.8,0.8,5.8
	c0-3.2,2.7-5.4,6.8-5.4c1.3,0,2.3,0.1,3.1,0.3c0.6,0.1,0.9,0.1,1.2,0.1s0.3,0.1,0.3,0.2s-0.1,1.1-0.1,3.2c0,0.5-0.1,0.7-0.2,0.7
	c-0.2,0-0.2-0.2-0.3-0.4c0-0.4-0.2-1.2-0.4-1.5C10.9,2.7,10.1,1.5,7,1.5C4.7,1.5,2.9,2.8,2.9,5c0,1.7,0.9,2.8,4,5l0.9,0.7
	c3.9,2.8,4.8,4.6,4.8,7c0,1.2-0.5,3.5-2.8,4.9c-1.4,0.9-3.2,1.2-5,1.2C3.4,23.8,1.9,23.6,0.5,23z"/>
<path class="st0" d="M26.7,15.1c0,2.7,0,5,0.1,6.1c0.1,0.8,0.2,1.4,1.1,1.5c0.4,0.1,1.1,0.1,1.3,0.1c0.2,0,0.2,0.1,0.2,0.2
	s-0.1,0.2-0.5,0.2c-1.6,0-3.4-0.1-3.6-0.1c-0.1,0-2.2,0.1-3,0.1c-0.3,0-0.5-0.1-0.5-0.2s0.1-0.2,0.2-0.2c0.3,0,0.6-0.1,0.9-0.1
	c0.6-0.1,0.8-0.7,0.9-1.5c0.1-1.2,0.1-3.4,0.1-6.1V3.2l-4.2,0.1c-1.8,0-2.5,0.2-3,0.9c-0.3,0.5-0.4,0.7-0.5,0.9
	c-0.1,0.2-0.2,0.3-0.3,0.3c-0.1,0-0.2-0.1-0.2-0.2c0-0.3,0.6-2.8,0.6-3.1c0.1-0.2,0.2-0.5,0.3-0.5c0.2,0,0.5,0.2,1.3,0.3
	C18.9,2,20.1,2,20.4,2h11c1,0,1.6-0.1,2.1-0.1c0.4-0.1,0.7-0.1,0.8-0.1s0.1,0.2,0.1,0.3c0,0.9-0.1,2.9-0.1,3.2
	c0,0.2-0.1,0.4-0.3,0.4c-0.1,0-0.2-0.1-0.2-0.5V4.9c-0.1-0.9-0.7-1.5-3.5-1.6l-3.6-0.1C26.7,3.2,26.7,15.1,26.7,15.1z"/>
<path class="st0" d="M44,2.5c0.4-0.9,0.5-1.1,0.7-1.1c0.3,0,0.4,0.4,0.7,1c0.5,1.2,5.2,12.9,7,17.2c1.1,2.5,1.9,2.9,2.5,3.1
	c0.4,0.1,0.9,0.2,1.2,0.2c0.2,0,0.4,0.1,0.4,0.2c0,0.2-0.3,0.2-0.7,0.2s-2.6,0-4.6-0.1c-0.6,0-1,0-1-0.2c0-0.1,0.1-0.1,0.2-0.2
	c0.2-0.1,0.5-0.3,0.3-0.8l-2.6-6.5c-0.1-0.1-0.1-0.2-0.3-0.2h-6.7c-0.1,0-0.2,0.1-0.3,0.2L39,20.2c-0.3,0.7-0.4,1.4-0.4,1.9
	c0,0.6,0.5,0.8,1,0.8h0.3c0.2,0,0.3,0.1,0.3,0.2c0,0.2-0.2,0.2-0.4,0.2c-0.7,0-2.3-0.1-2.6-0.1s-1.8,0.1-2.9,0.1
	c-0.4,0-0.6-0.1-0.6-0.2s0.1-0.2,0.3-0.2s0.6,0,0.9-0.1c1.3-0.2,1.9-1.2,2.5-2.6L44,2.5z M47.2,14.3c0.1,0,0.1-0.1,0.1-0.2l-2.9-7.8
	c-0.2-0.4-0.3-0.4-0.5,0l-2.7,7.8c0,0.1,0,0.2,0.1,0.2H47.2z"/>
<path class="st0" d="M94.7,10.1c0-4.4,0-5.2-0.1-6.1c-0.1-1-0.2-1.4-1.2-1.6c-0.2,0-0.7-0.1-1-0.1c-0.1,0-0.2-0.1-0.2-0.2
	c0-0.2,0.1-0.2,0.5-0.2C94,1.9,95.8,2,96,2c0.6,0,6.9,0,7.5,0s1.1,0,1.3-0.1c0.2,0,0.3-0.2,0.4-0.2s0.2,0.1,0.2,0.3
	s-0.1,0.5-0.2,1.3c0,0.3-0.1,1.5-0.1,1.9c0,0.1-0.1,0.3-0.3,0.3c-0.1,0-0.2-0.1-0.2-0.3c0-0.2-0.1-0.7-0.3-1.1
	c-0.2-0.4-0.9-0.8-2-0.8l-4.8-0.1c-0.2,0-0.2,0.1-0.2,0.3v7.7c0,0.2,0,0.3,0.2,0.3h4c0.5,0,0.9,0,1.3,0c0.7-0.1,1.1-0.2,1.4-0.5
	c0.1-0.2,0.3-0.3,0.4-0.3s0.2,0.1,0.2,0.2c0,0.2-0.2,0.6-0.3,1.6c-0.1,0.6-0.1,1.7-0.1,1.9c0,0.3-0.1,0.6-0.3,0.6
	c-0.2,0-0.2-0.1-0.2-0.3c0-0.3-0.1-0.7-0.2-1c-0.1-0.4-0.6-0.8-1.5-0.9c-0.7-0.1-4.2-0.1-4.7-0.1c-0.2,0-0.2,0.1-0.2,0.3v2.3
	c0,2.8,0,5,0.1,6.1c0.1,0.8,0.3,1.4,1.1,1.5c0.4,0.1,1.1,0.1,1.3,0.1c0.2,0,0.2,0.1,0.2,0.2s-0.1,0.2-0.5,0.2
	c-1.6,0-3.5-0.1-3.6-0.1c-0.2,0-2,0.1-2.9,0.1c-0.3,0-0.5-0.1-0.5-0.2s0.1-0.2,0.2-0.2c0.3,0,0.6-0.1,0.9-0.1
	c0.6-0.1,0.6-0.7,0.8-1.5c0.2-1.2,0.2-3.4,0.2-6.1L94.7,10.1L94.7,10.1z"/>
<path class="st0" d="M120.6,1.5c6.6,0,11.5,4,11.5,10.6c0,6.3-4.7,11.5-11.7,11.5c-8,0-11.4-6-11.4-11.1
	C109.1,8,112.6,1.5,120.6,1.5z M121.3,22.5c2.6,0,7.9-1.4,7.9-9.6c0-6.8-4.1-10.3-8.7-10.3c-4.9,0-8.4,3.1-8.4,9.2
	C112.1,18.4,116,22.5,121.3,22.5z"/>
<path class="st0" d="M137.4,10.1c0-4.4,0-5.2-0.1-6.1c-0.1-1-0.2-1.4-1.2-1.6c-0.2,0-0.7-0.1-1-0.1c-0.1,0-0.2-0.1-0.2-0.2
	c0-0.2,0.1-0.2,0.5-0.2c1.3,0,3.3,0.1,3.4,0.1c0.3,0,2.7-0.1,3.6-0.1c1.9,0,3.9,0.2,5.4,1.2c0.7,0.5,2,1.9,2,3.9
	c0,2.1-0.9,4.1-3.6,6.5c2.4,3,4.4,5.6,6.1,7.3c1.6,1.6,2.5,1.9,3.2,2c0.6,0.1,0.9,0.1,1,0.1c0.2,0,0.3,0.1,0.3,0.2
	c0,0.2-0.2,0.2-0.7,0.2h-1.8c-1.7,0-2.4-0.2-3.1-0.6c-1.3-0.7-2.3-2-4-4.2c-1.2-1.5-2.5-3.4-3.1-4.1c-0.1-0.1-0.2-0.2-0.4-0.2
	l-3.7-0.1c-0.1,0-0.2,0.1-0.2,0.2V15c0,2.7,0,4.9,0.1,6.1c0.1,0.8,0.3,1.4,1.2,1.5c0.4,0.1,1,0.1,1.3,0.1c0.2,0,0.2,0.1,0.2,0.2
	s-0.1,0.2-0.5,0.2c-1.6,0-3.4-0.1-3.6-0.1c0,0-2,0.1-2.9,0.1c-0.3,0-0.5-0.1-0.5-0.2s0.1-0.2,0.2-0.2c0.3,0,0.6-0.1,0.9-0.1
	c0.6-0.1,0.6-0.7,0.8-1.5c0.2-1.2,0.2-3.4,0.2-6.1v-4.9H137.4z M139.9,12.5c0,0.2,0.1,0.3,0.2,0.4c0.4,0.2,1.9,0.4,3.2,0.4
	c0.7,0,1.5,0,2.2-0.5c1-0.7,1.7-2.2,1.7-4.3c0-3.5-1.9-5.6-5-5.6c-0.9,0-1.8,0.1-2.1,0.2c-0.1,0.1-0.2,0.2-0.2,0.3L139.9,12.5
	L139.9,12.5z"/>
<path class="st2" d="M194.4,1.6c0.4-1,0.5-1.2,0.7-1.2s0.3,0.1,0.7,1.1c0.5,1.1,5.7,13.4,7.7,17.9c1.2,2.6,2.2,3.1,2.8,3.3
	c0.5,0.1,1,0.2,1.3,0.2c0.2,0,0.3,0,0.3,0.2s-0.3,0.2-0.7,0.2c-0.5,0-2.9,0-5.2-0.1c-0.6,0-1,0-1-0.2c0-0.1,0.1-0.2,0.2-0.2
	c0.2-0.1,0.4-0.3,0.2-0.8l-3.1-7.3c-0.1-0.1-0.1-0.2-0.3-0.2h-7.1c-0.2,0-0.3,0.1-0.3,0.2l-2,5.3c-0.3,0.7-0.5,1.5-0.5,2
	c0,0.6,0.7,0.9,1.3,0.9h0.3c0.2,0,0.3,0.1,0.3,0.2c0,0.2-0.2,0.2-0.5,0.2c-0.8,0-2.2-0.1-2.6-0.1c-0.4,0-2.2,0.1-3.7,0.1
	c-0.4,0-0.6-0.1-0.6-0.2s0.1-0.2,0.3-0.2s0.7,0,1-0.1c1.5-0.2,2.2-1.3,2.8-2.8L194.4,1.6z M197.8,13.5c0.2,0,0.2-0.1,0.1-0.2l-3.1-8
	c-0.2-0.4-0.3-0.4-0.5,0l-2.9,8c-0.1,0.1,0,0.2,0.1,0.2H197.8z"/>
<path class="st2" d="M235.4,19.7c0.1,1,0.3,2.5,1.5,2.9c0.8,0.3,1.6,0.3,1.9,0.3c0.1,0,0.2,0.1,0.2,0.2c0,0.2-0.3,0.3-0.6,0.3
	c-0.7,0-3.9-0.1-5-0.2c-0.7-0.1-0.8-0.2-0.8-0.3c0-0.1,0.1-0.2,0.2-0.2c0.2,0,0.2-0.5,0.1-1l-1.4-14.3h-0.1l-7,14.4
	c-0.6,1.2-0.8,1.5-1,1.5c-0.3,0-0.4-0.3-1-1.3c-0.8-1.4-2.7-5-3.4-6.6c-0.9-1.8-3.2-6.5-3.7-7.7h-0.1L214,20.4c0,0.4,0,1,0,1.4
	s0.3,0.7,0.7,0.8c0.5,0.1,0.9,0.2,1.1,0.2c0.1,0,0.2,0.1,0.2,0.2c0,0.2-0.2,0.3-0.5,0.3c-1.1,0-2.5-0.1-2.7-0.1
	c-0.3,0-1.7,0.1-2.4,0.1c-0.3,0-0.5-0.1-0.5-0.3c0-0.1,0.1-0.2,0.3-0.2s0.4,0,0.9-0.1c1-0.2,1-1.2,1.1-2.3L214.3,2
	c0-0.3,0.2-0.5,0.3-0.5c0.2,0,0.4,0.1,0.6,0.4l8.8,17.6L232.5,2c0.1-0.3,0.3-0.5,0.5-0.5s0.4,0.2,0.4,0.8L235.4,19.7z"/>
<path class="st2" d="M244.1,10.1c0-4.4,0-5.2-0.1-6.1c-0.1-1-0.2-1.4-1.2-1.6c-0.2,0-0.7-0.1-1-0.1c-0.1,0-0.2-0.1-0.2-0.2
	c0-0.2,0.1-0.2,0.5-0.2c1.3,0,3.2,0.1,3.4,0.1s6.3,0,6.9,0c0.6,0,1.1-0.1,1.3-0.2c0.1,0,0.3-0.1,0.4-0.1c0.1,0,0.1,0.1,0.1,0.3
	S254,2.5,254,3.3c0,0.3-0.1,1.5-0.2,1.9c0,0.1-0.1,0.3-0.3,0.3s-0.2-0.1-0.2-0.4c0-0.2,0-0.7-0.2-1c-0.2-0.5-0.5-0.7-2.1-0.9
	c-0.5-0.1-3.9-0.1-4.2-0.1c-0.1,0-0.2,0.1-0.2,0.3v7.7c0,0.2,0,0.3,0.2,0.3c0.4,0,4.2,0,4.9-0.1s1.1-0.1,1.4-0.4
	c0.2-0.2,0.3-0.4,0.4-0.4c0.1,0,0.2,0.1,0.2,0.2c0,0.2-0.2,0.6-0.2,1.6c-0.1,0.6-0.1,1.6-0.1,1.8s-0.1,0.5-0.3,0.5
	c-0.1,0-0.2-0.1-0.2-0.3c0-0.3,0-0.6-0.1-0.9c-0.1-0.4-0.4-0.7-1.5-0.9c-0.8-0.1-3.9-0.1-4.4-0.1c-0.2,0-0.2,0.1-0.2,0.2V15
	c0,1,0,4.3,0,4.8c0.1,1.9,0.6,2.3,3.5,2.3c0.8,0,2.2,0,2.9-0.3c0.8-0.3,1.2-0.8,1.3-2c0.1-0.3,0.1-0.4,0.3-0.4s0.2,0.2,0.2,0.4
	c0,0.2-0.2,2.1-0.4,2.7c-0.2,0.7-0.5,0.7-1.6,0.7c-2.2,0-3.9-0.1-5.1-0.1c-1.2-0.1-2-0.1-2.4-0.1c-0.1,0-0.6,0-1.3,0
	c-0.6,0-1.2,0.1-1.7,0.1c-0.3,0-0.5-0.1-0.5-0.2s0.1-0.2,0.2-0.2c0.3,0,0.6-0.1,0.9-0.1c0.6-0.1,0.6-0.7,0.8-1.5
	c0.2-1.2,0.2-3.4,0.2-6.1v-4.9H244.1z"/>
<path class="st2" d="M262.2,10.1c0-4.4,0-5.2-0.1-6.1c-0.1-1-0.2-1.4-1.2-1.6c-0.2,0-0.7-0.1-1-0.1c-0.1,0-0.2-0.1-0.2-0.2
	c0-0.2,0.1-0.2,0.5-0.2c1.3,0,3.3,0.1,3.4,0.1c0.3,0,2.7-0.1,3.6-0.1c1.9,0,3.9,0.2,5.4,1.2c0.7,0.5,2,1.9,2,3.9
	c0,2.1-0.9,4.1-3.6,6.5c2.4,3,4.4,5.6,6.1,7.3c1.6,1.6,2.5,1.9,3.2,2c0.6,0.1,0.9,0.1,1,0.1c0.2,0,0.3,0.1,0.3,0.2
	c0,0.2-0.2,0.2-0.7,0.2h-1.8c-1.7,0-2.4-0.2-3.1-0.6c-1.3-0.7-2.3-2-4-4.2c-1.2-1.5-2.5-3.4-3.1-4.1c-0.1-0.1-0.2-0.2-0.4-0.2
	l-3.7-0.1c-0.1,0-0.2,0.1-0.2,0.2V15c0,2.7,0,4.9,0.1,6.1c0.1,0.8,0.3,1.4,1.2,1.5c0.4,0.1,1,0.1,1.3,0.1c0.2,0,0.2,0.1,0.2,0.2
	s-0.1,0.2-0.5,0.2c-1.6,0-3.4-0.1-3.6-0.1c0,0-2,0.1-2.9,0.1c-0.3,0-0.5-0.1-0.5-0.2s0.1-0.2,0.2-0.2c0.3,0,0.6-0.1,0.9-0.1
	c0.6-0.1,0.6-0.7,0.8-1.5c0.2-1.2,0.2-3.4,0.2-6.1v-4.9H262.2z M264.7,12.5c0,0.2,0.1,0.3,0.2,0.4c0.4,0.2,1.9,0.4,3.2,0.4
	c0.7,0,1.5,0,2.2-0.5c1-0.7,1.8-2.2,1.8-4.3c0-3.5-1.9-5.6-5-5.6c-0.9,0-1.8,0.1-2.1,0.2c-0.1,0.1-0.2,0.2-0.2,0.3v9.1H264.7z"/>
<path class="st2" d="M289.3,15.1c0,2.7,0,5,0.1,6.1c0.1,0.8,0.2,1.4,1.1,1.5c0.4,0.1,1.1,0.1,1.3,0.1c0.2,0,0.2,0.1,0.2,0.2
	s-0.1,0.2-0.5,0.2c-1.6,0-3.5-0.1-3.6-0.1c-0.2,0-2,0.1-2.9,0.1c-0.3,0-0.5-0.1-0.5-0.2s0.1-0.2,0.2-0.2c0.3,0,0.6-0.1,0.9-0.1
	c0.6-0.1,0.7-0.7,0.8-1.5c0.1-1.2,0.2-3.4,0.2-6.1v-5c0-4.4,0-5.2-0.1-6.1c-0.1-1-0.3-1.4-0.9-1.5c-0.3-0.1-0.7-0.1-0.9-0.1
	c-0.1,0-0.2-0.1-0.2-0.2c0-0.2,0.1-0.2,0.5-0.2c1,0,2.8,0.1,2.9,0.1s2-0.1,2.9-0.1c0.3,0,0.5,0.1,0.5,0.2c0,0.1-0.1,0.2-0.2,0.2
	c-0.2,0-0.4,0-0.7,0.1c-0.8,0.2-1,0.6-1,1.6c0,0.9,0,1.7,0,6.1L289.3,15.1L289.3,15.1z"/>
<path class="st2" d="M298.9,20.6c-2.8-2.5-3.5-5.7-3.5-8.4c0-1.9,0.7-5.2,3.3-7.7c1.8-1.7,4.4-3,8.9-3c1.2,0,2.8,0.1,4.2,0.3
	c1.1,0.2,2,0.4,3,0.4c0.3,0,0.4,0.1,0.4,0.3s-0.1,0.6-0.1,1.6c0,0.9,0,2.5-0.1,2.9c0,0.4-0.2,0.6-0.3,0.6c-0.2,0-0.2-0.2-0.2-0.6
	c0-1.1-0.5-2.2-1.2-2.8c-1-0.9-3.1-1.6-5.7-1.6c-3.7,0-5.5,1-6.5,2c-2.2,2-2.6,4.5-2.6,7.4c0,5.4,4.3,10.2,10.5,10.2
	c2.2,0,3.6-0.2,4.8-1.3c0.6-0.6,1-1.8,1.1-2.4c0.1-0.3,0.1-0.4,0.3-0.4c0.1,0,0.3,0.2,0.3,0.4c0,0.2-0.4,2.7-0.7,3.6
	c-0.2,0.5-0.2,0.6-0.7,0.8c-1.2,0.5-3.4,0.6-5.3,0.6C304.1,23.7,301.2,22.6,298.9,20.6z"/>
<path class="st2" d="M327.5,2.5c0.4-0.9,0.5-1.1,0.7-1.1c0.3,0,0.4,0.4,0.7,1c0.5,1.2,5.2,12.9,7,17.2c1.1,2.5,1.9,2.9,2.5,3.1
	c0.4,0.1,0.9,0.2,1.2,0.2c0.2,0,0.4,0.1,0.4,0.2c0,0.2-0.3,0.2-0.7,0.2c-0.4,0-2.6,0-4.6-0.1c-0.6,0-1,0-1-0.2
	c0-0.1,0.1-0.1,0.2-0.2c0.2-0.1,0.5-0.3,0.3-0.8l-2.6-6.5c-0.1-0.1-0.1-0.2-0.3-0.2h-6.7c-0.1,0-0.2,0.1-0.3,0.2l-1.7,4.5
	c-0.3,0.7-0.4,1.4-0.4,1.9c0,0.6,0.5,0.8,1,0.8h0.3c0.2,0,0.3,0.1,0.3,0.2c0,0.2-0.2,0.2-0.4,0.2c-0.7,0-2.3-0.1-2.6-0.1
	c-0.3,0-1.8,0.1-2.9,0.1c-0.4,0-0.6-0.1-0.6-0.2s0.1-0.2,0.3-0.2c0.2,0,0.6,0,0.9-0.1c1.3-0.2,1.9-1.2,2.5-2.6L327.5,2.5z
	 M330.7,14.3c0.1,0,0.1-0.1,0.1-0.2l-2.9-7.8c-0.2-0.4-0.3-0.4-0.5,0l-2.7,7.8c0,0.1,0,0.2,0.1,0.2H330.7z"/>
<path class="st2" d="M344.9,19.4c0.1,2.3,0.3,3,1.1,3.2c0.5,0.1,1.2,0.2,1.5,0.2c0.1,0,0.2,0.1,0.2,0.2c0,0.2-0.2,0.2-0.5,0.2
	c-1.7,0-2.8-0.1-3.1-0.1c-0.3,0-1.5,0.1-2.8,0.1c-0.3,0-0.5,0-0.5-0.2c0-0.1,0.1-0.2,0.2-0.2c0.2,0,0.8,0,1.2-0.2
	c0.7-0.2,0.8-1,0.8-3.5V3c0-1.1,0.2-1.4,0.4-1.4c0.3,0,0.8,0.6,1.1,0.9c0.5,0.5,4.7,5,9.2,9.6c2.9,3,6,6.4,6.9,7.3l-0.3-14.2
	c0-1.8-0.2-2.5-1.1-2.6c-0.5-0.1-1.2-0.1-1.4-0.1c-0.2,0-0.2-0.2-0.2-0.3c0-0.2,0.2-0.2,0.6-0.2c1.3,0,2.7,0.1,3.1,0.1
	c0.3,0,1.3-0.1,2.5-0.1c0.3,0,0.5,0,0.5,0.2c0,0.1-0.1,0.3-0.3,0.3c-0.1,0-0.4,0-0.7,0.1c-1,0.2-1,0.8-1,2.5l-0.1,16.6
	c0,1.9,0,2-0.2,2c-0.3,0-0.6-0.2-2.2-1.7c-0.3-0.3-4.5-4.4-7.6-7.7c-3.4-3.6-6.7-7-7.5-8L344.9,19.4z"/>
<path class="st0" d="M85.9,19.7c0.1,1,0.3,2.5,1.5,2.9c0.8,0.3,1.6,0.3,1.9,0.3c0.1,0,0.2,0.1,0.2,0.2c0,0.2-0.3,0.3-0.6,0.3
	c-0.7,0-3.9-0.1-5-0.2c-0.7-0.1-0.8-0.2-0.8-0.3c0-0.1,0.1-0.2,0.2-0.2c0.2,0,0.2-0.5,0.1-1L82.1,7.3H82l-7,14.4
	c-0.6,1.2-0.8,1.5-1,1.5c-0.3,0-0.4-0.3-1-1.3c-0.8-1.4-2.7-5-3.4-6.6c-0.9-1.8-3.2-6.5-3.7-7.7h-0.1l-1.1,12.8c0,0.4,0,1,0,1.4
	s0.3,0.7,0.7,0.8c0.5,0.1,0.9,0.2,1.1,0.2c0.1,0,0.2,0.1,0.2,0.2c0,0.2-0.2,0.3-0.5,0.3c-1.1,0-2.5-0.1-2.7-0.1
	c-0.3,0-1.7,0.1-2.4,0.1c-0.3,0-0.5-0.1-0.5-0.3c0-0.1,0.1-0.2,0.3-0.2s0.4,0,0.9-0.1c1-0.2,1-1.2,1.1-2.3L64.8,2
	c0-0.3,0.2-0.5,0.3-0.5c0.2,0,0.4,0.1,0.6,0.4l8.8,17.6L83,2c0.1-0.3,0.3-0.5,0.5-0.5s0.4,0.2,0.4,0.8L85.9,19.7z"/>
<g>
	<path class="st3" d="M94.6,28.7h2.2v14.9h-2.2V28.7z"/>
	<path class="st3" d="M106.6,33.7v1.2c0.9-0.9,1.9-1.5,3.1-1.5c0.6,0,1.2,0.1,1.8,0.4c0.6,0.3,1,0.7,1.2,1.3
		c0.3,0.6,0.4,1.5,0.4,2.7v5.6h-2.1V38c0-1-0.1-1.8-0.4-2.1c-0.3-0.4-0.9-0.6-1.6-0.6c-0.9,0-1.8,0.4-2.4,1.3v7h-2.1v-10H106.6z"/>
	<path class="st3" d="M119.1,35.2l3.9-3.6v2.1h3.3v1.8H123v4.8c0,1.2,0.4,1.6,1.5,1.6c0.7,0,1.5-0.3,2.4-0.7v1.8
		c-0.7,0.4-1.6,0.6-2.5,0.6c-0.9,0-1.6-0.3-2.4-0.7c-0.1-0.1-0.3-0.3-0.4-0.6c-0.1-0.1-0.3-0.4-0.3-0.7c-0.1-0.3-0.1-0.9-0.1-1.8
		v-4.3h-1.8v-0.1H119.1z"/>
	<path class="st3" d="M141.5,38.8h-7.3c0,0.9,0.4,1.6,1,2.2c0.6,0.6,1.3,0.9,2.4,0.9c1.3,0,2.5-0.4,3.7-1.2v1.9
		c-0.6,0.4-1.2,0.7-1.9,0.9c-0.6,0.1-1.3,0.3-2.2,0.3c-1.2,0-2.1-0.3-2.8-0.7c-0.7-0.4-1.2-1-1.6-1.8c-0.4-0.7-0.6-1.6-0.6-2.7
		c0-1.5,0.4-2.7,1.3-3.6c0.9-0.9,2.1-1.3,3.4-1.3c1.3,0,2.5,0.4,3.3,1.3c0.7,0.9,1.2,2.1,1.2,3.6v0.1H141.5z M134.4,37.6h5.2
		c0-0.7-0.3-1.3-0.7-1.8c-0.4-0.4-1-0.6-1.8-0.6c-0.7,0-1.3,0.1-1.8,0.6C134.8,36.2,134.6,36.8,134.4,37.6z"/>
	<path class="st3" d="M150.6,33.7v2.2l0.1-0.1c1-1.5,1.9-2.2,3-2.2c0.7,0,1.6,0.3,2.4,1l-1,1.6c-0.7-0.6-1.3-0.9-1.9-0.9
		c-0.6,0-1.2,0.3-1.6,0.9c-0.4,0.6-0.7,1.3-0.7,2.1v5h-2.1v-9.7H150.6z"/>
	<path class="st3" d="M164,33.7v1.2c0.9-0.9,1.9-1.5,3.1-1.5c0.6,0,1.2,0.1,1.8,0.4c0.6,0.3,1,0.7,1.2,1.3c0.3,0.6,0.4,1.5,0.4,2.7
		v5.6h-2.1V38c0-1-0.1-1.8-0.4-2.1c-0.3-0.4-0.9-0.6-1.6-0.6c-0.9,0-1.8,0.4-2.4,1.3v7h-2.1v-10H164z"/>
	<path class="st3" d="M184.5,37.6v4.2c0,0.3,0.1,0.4,0.3,0.4c0.3,0,0.6-0.1,1.2-0.6v1.2c-0.4,0.3-0.9,0.4-1,0.6
		c-0.3,0.1-0.6,0.1-0.9,0.1c-0.9,0-1.3-0.3-1.5-1c-0.9,0.6-1.8,0.9-2.8,0.9c-0.7,0-1.3-0.3-1.8-0.7c-0.4-0.4-0.7-1-0.7-1.6
		c0-0.6,0.3-1.2,0.7-1.6c0.4-0.4,1.2-0.9,1.9-1.2l2.7-0.9v-0.6c0-1.2-0.6-1.8-1.8-1.8c-1,0-2.2,0.6-3.3,1.6v-2.1
		c0.7-0.9,1.9-1.3,3.4-1.3c1,0,1.9,0.3,2.7,0.9c0.3,0.1,0.4,0.4,0.6,0.7c0.1,0.3,0.3,0.6,0.3,0.9C184.5,36.2,184.5,36.8,184.5,37.6z
		 M182.5,41.6v-2.8l-1.3,0.4c-0.7,0.3-1.2,0.6-1.5,0.7c-0.3,0.3-0.4,0.6-0.4,1c0,0.4,0.1,0.7,0.4,1c0.3,0.3,0.6,0.4,1,0.4
		C181.3,42.3,181.9,42,182.5,41.6z"/>
	<path class="st3" d="M191,35.2l3.9-3.6v2.1h3.3v1.8h-3.3v4.8c0,1.2,0.4,1.6,1.5,1.6c0.7,0,1.5-0.3,2.4-0.7v1.8
		c-0.7,0.4-1.6,0.6-2.5,0.6c-0.9,0-1.6-0.3-2.4-0.7c-0.1-0.1-0.3-0.3-0.4-0.6c-0.1-0.1-0.3-0.4-0.3-0.7c-0.1-0.3-0.1-0.9-0.1-1.8
		v-4.3h-1.8v-0.1H191z"/>
	<path class="st3" d="M205.7,29.5c0.3,0,0.6,0.1,0.9,0.3s0.3,0.4,0.3,0.7c0,0.3-0.1,0.6-0.3,0.7c-0.3,0.3-0.6,0.3-0.9,0.3
		s-0.6-0.1-0.9-0.3c-0.3-0.3-0.3-0.4-0.3-0.7c0-0.3,0.1-0.6,0.3-0.7C205.1,29.7,205.2,29.5,205.7,29.5z M204.6,33.7h2.1v9.8h-2.1
		V33.7z"/>
	<path class="st3" d="M219.1,33.7c1.6,0,2.8,0.4,3.9,1.5c1,0.9,1.5,2.2,1.5,3.6c0,1.3-0.6,2.5-1.6,3.6c-1,0.9-2.4,1.3-4,1.3
		c-1.5,0-2.8-0.4-3.9-1.5c-1-0.9-1.5-2.1-1.5-3.6s0.6-2.7,1.6-3.6C216.2,34.1,217.6,33.7,219.1,33.7z M218.9,35.3
		c-1,0-1.8,0.3-2.4,0.9c-0.6,0.6-0.9,1.3-0.9,2.4c0,0.9,0.3,1.6,0.9,2.2s1.5,0.9,2.5,0.9c1,0,1.8-0.3,2.5-0.9
		c0.6-0.6,0.9-1.3,0.9-2.2s-0.3-1.6-1-2.2C220.8,35.8,219.9,35.3,218.9,35.3z"/>
	<path class="st3" d="M233.5,33.7v1.2c0.9-0.9,1.9-1.5,3.1-1.5c0.6,0,1.2,0.1,1.8,0.4c0.6,0.3,1,0.7,1.2,1.3
		c0.3,0.6,0.4,1.5,0.4,2.7v5.6h-2.1V38c0-1-0.1-1.8-0.4-2.1c-0.3-0.4-0.9-0.6-1.6-0.6c-0.9,0-1.8,0.4-2.4,1.3v7h-2.1v-10H233.5z"/>
	<path class="st3" d="M253.8,37.6v4.2c0,0.3,0.1,0.4,0.3,0.4c0.3,0,0.6-0.1,1.2-0.6v1.2c-0.4,0.3-0.9,0.4-1,0.6
		c-0.3,0.1-0.6,0.1-0.9,0.1c-0.9,0-1.3-0.3-1.5-1c-0.9,0.6-1.8,0.9-2.8,0.9c-0.7,0-1.3-0.3-1.8-0.7c-0.4-0.4-0.7-1-0.7-1.6
		c0-0.6,0.3-1.2,0.7-1.6c0.4-0.4,1.2-0.9,1.9-1.2l2.7-0.9v-0.6c0-1.2-0.6-1.8-1.8-1.8c-1,0-2.2,0.6-3.3,1.6v-2.1
		c0.7-0.9,1.9-1.3,3.4-1.3c1,0,1.9,0.3,2.7,0.9c0.3,0.1,0.4,0.4,0.6,0.7c0.1,0.3,0.3,0.6,0.3,0.9C253.8,36.2,253.8,36.8,253.8,37.6z
		 M251.9,41.6v-2.8l-1.3,0.4c-0.7,0.3-1.2,0.6-1.5,0.7c-0.3,0.3-0.4,0.6-0.4,1c0,0.4,0.1,0.7,0.4,1c0.3,0.3,0.6,0.4,1,0.4
		C250.7,42.3,251.3,42,251.9,41.6z"/>
	<path class="st3" d="M261.8,28.7h2.1v14.9h-2.1V28.7z"/>
	<path class="st3" d="M286.5,37.3l-1.6-1c-1-0.6-1.8-1.2-2.2-1.8s-0.7-1.3-0.7-2.1c0-1.2,0.4-2.1,1.3-2.8c0.9-0.7,1.9-1,3.3-1
		c1.3,0,2.5,0.3,3.6,1v2.4c-1.2-1-2.4-1.5-3.6-1.5c-0.7,0-1.3,0.1-1.8,0.4c-0.4,0.3-0.7,0.7-0.7,1.2c0,0.4,0.1,0.9,0.4,1.2
		c0.3,0.3,0.9,0.7,1.6,1.2l1.6,0.9c1.9,1,2.8,2.5,2.8,4.2c0,1.2-0.4,2.1-1.2,2.8c-0.7,0.7-1.9,1-3.3,1c-1.5,0-3-0.4-4.2-1.3v-2.4
		c1.2,1.5,2.7,2.2,4.2,2.2c0.7,0,1.3-0.1,1.8-0.6c0.4-0.3,0.7-0.9,0.7-1.3C288.6,38.9,287.8,38,286.5,37.3z"/>
	<path class="st3" d="M305,41.1v1.9c-1,0.3-2.1,0.6-3,0.6c-1.6,0-2.8-0.4-3.9-1.3c-0.9-0.9-1.5-2.1-1.5-3.6s0.4-2.8,1.3-3.7
		c0.9-0.9,2.2-1.3,3.7-1.3c0.6,0,1,0,1.5,0.1c0.4,0.1,0.9,0.3,1.5,0.6v2.1c-1-0.6-1.9-0.9-2.8-0.9c-0.9,0-1.6,0.3-2.2,0.9
		c-0.6,0.6-0.9,1.3-0.9,2.4c0,1,0.3,1.8,0.9,2.4s1.5,0.9,2.5,0.9C303.1,41.9,304,41.6,305,41.1z"/>
	<path class="st3" d="M311.9,28.7h2.1V35c0.9-1,1.9-1.5,3.1-1.5c0.7,0,1.3,0.1,1.8,0.4c0.6,0.3,0.9,0.7,1.2,1.3
		c0.3,0.6,0.4,1.5,0.4,2.5v5.5h-2.1v-6.1c0-0.7-0.1-1.3-0.6-1.8c-0.3-0.4-0.9-0.6-1.5-0.6c-0.4,0-0.9,0.1-1.3,0.3
		c-0.4,0.1-0.9,0.6-1.3,1v7h-2.1V28.7H311.9z"/>
	<path class="st3" d="M333,33.7c1.6,0,2.8,0.4,3.9,1.5c1,0.9,1.5,2.2,1.5,3.6c0,1.3-0.6,2.5-1.6,3.6c-1,0.9-2.4,1.3-4,1.3
		c-1.5,0-2.8-0.4-3.9-1.5c-1-0.9-1.5-2.1-1.5-3.6s0.6-2.7,1.6-3.6C330,34.1,331.3,33.7,333,33.7z M332.8,35.3c-1,0-1.8,0.3-2.4,0.9
		c-0.6,0.6-0.9,1.3-0.9,2.4c0,0.9,0.3,1.6,0.9,2.2s1.5,0.9,2.5,0.9c1,0,1.8-0.3,2.5-0.9c0.6-0.6,0.9-1.3,0.9-2.2s-0.3-1.6-1-2.2
		C334.6,35.8,333.9,35.3,332.8,35.3z"/>
	<path class="st3" d="M350.2,33.7c1.6,0,2.8,0.4,3.9,1.5c1,0.9,1.5,2.2,1.5,3.6c0,1.3-0.6,2.5-1.6,3.6c-1,0.9-2.4,1.3-4,1.3
		c-1.5,0-2.8-0.4-3.9-1.5c-1-0.9-1.5-2.1-1.5-3.6s0.6-2.7,1.6-3.6C347.2,34.1,348.6,33.7,350.2,33.7z M350,35.3
		c-1,0-1.8,0.3-2.4,0.9c-0.6,0.6-0.9,1.3-0.9,2.4c0,0.9,0.3,1.6,0.9,2.2s1.5,0.9,2.5,0.9c1,0,1.8-0.3,2.5-0.9
		c0.6-0.6,0.9-1.3,0.9-2.2s-0.3-1.6-1-2.2C351.8,35.8,351.1,35.3,350,35.3z"/>
	<path class="st3" d="M362.5,28.7h2.1v14.9h-2.1V28.7z"/>
</g>
</svg>
